<svg version="1.1" id="Layer_1" xmlns="http://www.w3.org/2000/svg" xmlns:xlink="http://www.w3.org/1999/xlink" x="0px" y="0px"
	 width="100%" viewBox="0 0 1024 1024" enable-background="new 0 0 1024 1024" xml:space="preserve">
<path fill="#000000" opacity="1.000000" stroke="none" 
	d="
M572.000000,1025.000000 
	C381.333344,1025.000000 191.166672,1025.000000 1.000000,1025.000000 
	C1.000000,683.666687 1.000000,342.333344 1.000000,1.000000 
	C342.333344,1.000000 683.666687,1.000000 1025.000000,1.000000 
	C1025.000000,342.333344 1025.000000,683.666687 1025.000000,1025.000000 
	C874.166687,1025.000000 723.333313,1025.000000 572.000000,1025.000000 
M113.854927,537.550781 
	C120.759590,565.009460 136.392776,586.828552 158.415024,603.920837 
	C185.953323,625.294312 217.789429,631.412720 251.844147,627.493713 
	C286.063995,623.555664 313.405945,607.161011 334.699249,580.417603 
	C357.741547,551.477417 363.954559,518.173096 358.581360,482.431702 
	C355.746887,463.577393 347.791901,446.639191 336.413788,431.109955 
	C317.848480,405.771362 293.319946,389.129211 262.974609,382.811707 
	C223.201111,374.531403 185.974503,381.442902 153.995529,408.099457 
	C137.353775,421.971466 124.835808,439.074371 117.300217,459.570557 
	C107.984444,484.908691 107.582230,510.680725 113.854927,537.550781 
M454.416626,535.686157 
	C462.837402,530.184570 468.945740,522.864319 471.039612,512.890320 
	C472.021149,508.214935 471.763214,503.292725 472.358734,498.518738 
	C472.856476,494.528656 471.177063,492.971375 467.384918,492.989319 
	C459.890869,493.024719 452.394989,493.083008 444.902863,492.955566 
	C440.520569,492.881012 437.869141,494.206177 438.006500,499.172333 
	C438.149658,504.348785 439.403351,505.733582 444.967407,505.930664 
	C446.797638,505.995514 448.634064,505.918945 450.461853,506.015808 
	C456.711334,506.347076 458.537201,509.435608 455.677277,514.898865 
	C445.629639,534.092712 424.435944,528.970093 416.241821,518.232544 
	C405.346130,503.954773 406.633209,482.888275 419.126678,469.420685 
	C429.237000,458.522064 447.041077,460.182953 454.323273,473.136230 
	C456.966309,477.837646 460.207214,479.307404 465.169891,479.069977 
	C471.576660,478.763519 472.631775,477.337463 470.175079,471.436340 
	C461.222992,449.932861 431.673126,441.744446 412.134857,455.353119 
	C392.648407,468.925629 387.031403,498.689697 399.851227,520.913208 
	C406.080261,531.711487 415.635498,538.177612 427.809479,539.809570 
	C436.648163,540.994385 445.728943,540.919678 454.416626,535.686157 
M552.099609,490.503754 
	C552.126343,486.672546 551.801453,482.790955 552.339844,479.033020 
	C552.580811,477.350494 554.351990,474.848877 555.778687,474.580658 
	C559.243286,473.929413 562.912842,474.368866 566.499817,474.368866 
	C564.292297,475.024384 562.129333,474.986633 559.968018,475.031616 
	C554.026245,475.155243 553.025269,476.064331 553.001831,482.125061 
	C552.938538,498.451111 552.944275,514.777771 553.013489,531.103821 
	C553.038879,537.106628 554.221375,538.076416 560.626404,538.052124 
	C566.702087,538.029053 567.823120,537.083313 567.891846,531.263733 
	C568.009949,521.269104 567.913757,511.271881 568.038269,501.277405 
	C568.153015,492.062439 573.849609,485.345856 581.223572,485.494598 
	C588.587585,485.643127 592.863220,491.245758 592.956055,501.153442 
	C593.051270,511.314880 593.087952,521.479065 592.953796,531.639526 
	C592.890808,536.407898 595.072327,538.173950 599.649414,538.087524 
	C605.448547,537.977966 606.866943,537.039551 606.944946,531.811340 
	C607.074036,523.150208 607.218018,514.479126 606.943359,505.825348 
	C606.733093,499.200317 607.719666,493.667572 613.532043,489.180511 
	C618.511108,485.336700 624.833984,484.930603 628.151062,490.289795 
	C629.883362,493.088470 630.777710,496.796021 630.893127,500.133148 
	C631.261414,510.783325 631.078857,521.452271 631.127808,532.113892 
	C631.150818,537.121582 634.398438,537.990417 638.527405,538.043640 
	C642.462341,538.094421 645.048645,536.923462 645.027283,532.482300 
	C644.961670,518.836060 645.422668,505.162750 644.701599,491.551758 
	C644.088379,479.974548 636.146729,473.117889 624.553345,474.233246 
	C618.846558,474.782318 613.307190,477.787842 607.865234,480.091034 
	C604.868958,481.359100 602.804688,481.305908 600.272339,478.998627 
	C593.366211,472.706268 584.156250,472.021881 575.808105,476.882996 
	C573.042297,478.493530 570.799255,479.813690 569.570862,475.196716 
	C569.294373,474.157654 567.029419,473.243500 565.564148,473.015686 
	C563.120056,472.635590 560.581726,472.798065 558.084595,472.834534 
	C551.790894,472.926422 550.963501,473.729126 550.944519,480.184875 
	C550.892090,498.010498 550.896057,515.836243 550.907776,533.661987 
	C550.908508,534.789673 551.166199,535.917175 551.442139,538.168762 
	C551.878845,536.610291 552.043457,536.296021 552.044067,535.981506 
	C552.072205,521.155151 552.086121,506.328827 552.099609,490.503754 
M796.005249,513.338562 
	C799.107788,505.036652 799.856201,496.375549 798.758545,487.727020 
	C796.008301,466.057709 784.097900,451.866638 763.544800,450.202850 
	C754.006226,449.430664 744.358459,450.037994 734.760742,449.952454 
	C730.811401,449.917267 728.877625,451.846100 728.843140,455.696655 
	C728.802979,460.185272 728.882385,464.674805 728.889465,469.164001 
	C728.922119,489.944855 729.004639,510.725922 728.932495,531.506470 
	C728.916260,536.180054 730.861633,538.160278 735.516785,538.080688 
	C743.343262,537.946899 751.174805,537.990356 759.002625,538.087708 
	C776.649841,538.307251 788.748352,530.116455 796.005249,513.338562 
M712.880005,524.953796 
	C710.980469,521.377563 704.512329,520.349915 701.124634,523.091797 
	C699.582764,524.339783 698.205444,525.886658 696.490540,526.809265 
	C687.703491,531.536560 677.722595,528.261963 673.197815,519.313904 
	C671.436462,515.830688 672.753113,512.639221 676.640686,511.573669 
	C678.370300,511.099548 680.267639,511.069336 682.083435,511.106140 
	C691.060181,511.288055 700.036804,511.794525 709.009888,511.724365 
	C715.969360,511.669952 717.133179,510.003601 716.243103,503.201355 
	C715.919495,500.728180 715.720947,498.201385 715.045471,495.817993 
	C712.208618,485.807343 706.647400,477.568542 696.271362,474.914642 
	C685.566711,472.176697 675.061279,473.479187 666.585510,481.894257 
	C655.868591,492.534485 654.002502,513.768127 662.674011,526.906677 
	C674.903992,545.437012 703.153259,544.699829 712.880005,524.953796 
M842.246094,473.992981 
	C832.350159,473.099182 823.780762,475.779663 817.117737,483.439148 
	C810.516968,491.026978 809.719971,500.155792 809.876099,509.702484 
	C810.204773,529.800842 825.494812,542.931091 845.363770,539.697571 
	C852.981812,538.457764 859.715576,535.642029 863.307495,527.988525 
	C865.162598,524.035828 864.499146,522.702759 860.157349,521.894836 
	C856.515930,521.217224 853.956726,522.502197 851.242493,524.944458 
	C841.980774,533.278137 827.542114,529.271118 824.791626,517.802429 
	C823.982178,514.427429 824.268250,511.694702 828.769836,511.736755 
	C836.735352,511.811127 844.701477,511.930115 852.666626,511.889221 
	C856.315613,511.870514 860.078369,511.982208 863.561646,511.117035 
	C865.285339,510.688873 867.591553,508.291809 867.761780,506.597412 
	C869.274475,491.542847 859.242737,475.012085 842.246094,473.992981 
M538.390686,491.472198 
	C536.226868,482.304962 530.721252,476.196350 521.322937,474.842133 
	C515.651367,474.024902 509.666687,473.972778 504.009674,474.822113 
	C497.051453,475.866852 491.935272,480.193573 489.373260,487.002899 
	C488.020111,490.599274 488.920593,492.804657 493.218445,492.925140 
	C496.898682,493.028290 499.801147,492.311493 502.276581,489.018677 
	C507.226074,482.434845 518.458374,482.254669 522.537659,488.881165 
	C524.230591,491.631287 524.559753,495.858734 523.923218,499.103302 
	C523.653931,500.476227 519.366394,501.349762 516.787964,501.925171 
	C509.844666,503.474701 502.565765,503.971771 495.927856,506.321198 
	C488.139496,509.077759 484.469025,517.263794 485.820465,525.485107 
	C487.064545,533.053040 492.679779,539.025269 499.789673,539.793213 
	C505.947693,540.458374 511.997437,540.270447 517.746765,537.076782 
	C519.644409,536.022644 522.430359,536.567505 525.102417,536.358398 
	C525.083313,536.440674 525.265564,535.655090 525.500061,534.644043 
	C528.041565,539.050354 532.095337,538.467590 535.673828,537.505005 
	C537.094421,537.122864 538.794556,534.392700 538.811707,532.715637 
	C538.949829,519.247314 538.716003,505.775177 538.390686,491.472198 
M912.443726,477.797516 
	C910.351318,481.393066 908.346191,485.043060 906.145142,488.570862 
	C903.130249,493.403381 899.560791,493.370331 896.755798,488.595795 
	C895.575439,486.586731 894.143799,484.674225 893.292175,482.532623 
	C890.691406,475.992401 885.719849,474.330444 879.263977,475.039337 
	C874.828430,475.526337 874.284241,476.425751 876.676941,480.281891 
	C880.536987,486.502808 884.499084,492.661835 888.269653,498.936249 
	C891.369873,504.095337 892.285461,509.220306 888.373718,514.669678 
	C884.108887,520.610901 880.300537,526.882080 876.357239,533.050293 
	C875.271057,534.749451 873.988953,536.643372 877.120422,537.769348 
	C882.359863,539.653259 888.464417,537.581055 891.397949,532.864319 
	C892.540649,531.027161 893.361816,528.905945 894.806763,527.360291 
	C897.071838,524.937256 899.741943,522.892883 902.240540,520.688171 
	C903.999878,523.148010 906.222168,525.401062 907.430908,528.106873 
	C910.925781,535.930237 914.250305,538.337769 922.706787,537.982300 
	C924.270630,537.916504 925.808838,537.239441 927.358887,536.844543 
	C926.835449,535.182373 926.630615,533.319702 925.732849,531.893127 
	C922.011108,525.979797 918.260559,520.067810 914.173645,514.405823 
	C910.304077,509.044800 910.629089,504.015381 914.138062,498.744019 
	C918.009216,492.928467 921.782532,487.047089 925.539124,481.156555 
	C926.467041,479.701538 927.164917,478.099884 928.394287,475.752930 
	C922.462036,475.069672 917.520508,473.581329 912.443726,477.797516 
M539.931824,496.157227 
	C539.931824,509.418549 539.931824,522.679871 539.931824,535.941223 
	C541.007202,522.540649 541.008240,509.150299 540.965271,495.760071 
	C540.965088,495.712769 540.329041,495.667480 539.931824,496.157227 
M592.115906,523.494995 
	C592.115906,515.664124 592.115906,507.833313 592.115906,500.002441 
	C591.848083,500.010864 591.580200,500.019318 591.312378,500.027740 
	C591.312378,512.963074 591.312378,525.898438 591.312378,538.833801 
	C591.580688,538.835266 591.849060,538.836731 592.117371,538.838196 
	C592.117371,534.055786 592.117371,529.273438 592.115906,523.494995 
M608.181641,501.081848 
	C608.181641,513.127014 608.181641,525.172180 608.181641,537.217285 
	C608.308105,537.217102 608.434570,537.216919 608.561035,537.216736 
	C608.561035,525.108826 608.561035,513.000854 608.181641,501.081848 
z"/>
<path fill="#0E1315" opacity="1.000000" stroke="none" 
	d="
M113.755745,537.151428 
	C107.582230,510.680725 107.984444,484.908691 117.300217,459.570557 
	C124.835808,439.074371 137.353775,421.971466 153.995529,408.099457 
	C185.974503,381.442902 223.201111,374.531403 262.974609,382.811707 
	C293.319946,389.129211 317.848480,405.771362 336.413788,431.109955 
	C347.791901,446.639191 355.746887,463.577393 358.581360,482.431702 
	C363.954559,518.173096 357.741547,551.477417 334.699249,580.417603 
	C313.405945,607.161011 286.063995,623.555664 251.844147,627.493713 
	C217.789429,631.412720 185.953323,625.294312 158.415024,603.920837 
	C136.392776,586.828552 120.759590,565.009460 113.755745,537.151428 
M282.903809,563.612549 
	C297.256073,574.047546 313.384430,573.963135 324.371643,562.790466 
	C333.476257,553.532104 337.592834,541.931091 336.432678,529.049133 
	C335.448669,518.123352 333.652832,507.233765 331.566437,496.453918 
	C329.219330,484.327209 325.757599,472.455902 318.518158,462.164551 
	C308.639587,448.121490 296.254395,437.404694 278.185394,436.962952 
	C250.564774,436.287689 222.895432,435.606812 195.303375,436.562378 
	C180.330246,437.080933 167.302124,444.147003 157.593567,456.464020 
	C151.263123,464.495331 146.500183,473.276611 144.637238,483.175903 
	C141.350952,500.638580 137.592194,518.173706 136.481995,535.832520 
	C135.620743,549.531738 141.868958,561.780212 155.216156,568.064270 
	C169.304611,574.697327 181.868469,570.506714 192.831177,560.476135 
	C197.987473,555.758240 202.946991,550.799561 207.707764,545.682190 
	C212.814362,540.193176 218.824570,537.569946 226.356583,537.885376 
	C233.006943,538.163818 239.684250,538.133972 246.338028,537.903992 
	C253.314774,537.662842 258.873505,540.165771 263.715332,545.114685 
	C269.760620,551.293762 276.111755,557.173523 282.903809,563.612549 
z"/>
<path fill="#0E1315" opacity="1.000000" stroke="none" 
	d="
M454.170776,535.906982 
	C445.728943,540.919678 436.648163,540.994385 427.809479,539.809570 
	C415.635498,538.177612 406.080261,531.711487 399.851227,520.913208 
	C387.031403,498.689697 392.648407,468.925629 412.134857,455.353119 
	C431.673126,441.744446 461.222992,449.932861 470.175079,471.436340 
	C472.631775,477.337463 471.576660,478.763519 465.169891,479.069977 
	C460.207214,479.307404 456.966309,477.837646 454.323273,473.136230 
	C447.041077,460.182953 429.237000,458.522064 419.126678,469.420685 
	C406.633209,482.888275 405.346130,503.954773 416.241821,518.232544 
	C424.435944,528.970093 445.629639,534.092712 455.677277,514.898865 
	C458.537201,509.435608 456.711334,506.347076 450.461853,506.015808 
	C448.634064,505.918945 446.797638,505.995514 444.967407,505.930664 
	C439.403351,505.733582 438.149658,504.348785 438.006500,499.172333 
	C437.869141,494.206177 440.520569,492.881012 444.902863,492.955566 
	C452.394989,493.083008 459.890869,493.024719 467.384918,492.989319 
	C471.177063,492.971375 472.856476,494.528656 472.358734,498.518738 
	C471.763214,503.292725 472.021149,508.214935 471.039612,512.890320 
	C468.945740,522.864319 462.837402,530.184570 454.170776,535.906982 
z"/>
<path fill="#0E1315" opacity="1.000000" stroke="none" 
	d="
M552.100586,491.003113 
	C552.086121,506.328827 552.072205,521.155151 552.044067,535.981506 
	C552.043457,536.296021 551.878845,536.610291 551.442139,538.168762 
	C551.166199,535.917175 550.908508,534.789673 550.907776,533.661987 
	C550.896057,515.836243 550.892090,498.010498 550.944519,480.184875 
	C550.963501,473.729126 551.790894,472.926422 558.084595,472.834534 
	C560.581726,472.798065 563.120056,472.635590 565.564148,473.015686 
	C567.029419,473.243500 569.294373,474.157654 569.570862,475.196716 
	C570.799255,479.813690 573.042297,478.493530 575.808105,476.882996 
	C584.156250,472.021881 593.366211,472.706268 600.272339,478.998627 
	C602.804688,481.305908 604.868958,481.359100 607.865234,480.091034 
	C613.307190,477.787842 618.846558,474.782318 624.553345,474.233246 
	C636.146729,473.117889 644.088379,479.974548 644.701599,491.551758 
	C645.422668,505.162750 644.961670,518.836060 645.027283,532.482300 
	C645.048645,536.923462 642.462341,538.094421 638.527405,538.043640 
	C634.398438,537.990417 631.150818,537.121582 631.127808,532.113892 
	C631.078857,521.452271 631.261414,510.783325 630.893127,500.133148 
	C630.777710,496.796021 629.883362,493.088470 628.151062,490.289795 
	C624.833984,484.930603 618.511108,485.336700 613.532043,489.180511 
	C607.719666,493.667572 606.733093,499.200317 606.943359,505.825348 
	C607.218018,514.479126 607.074036,523.150208 606.944946,531.811340 
	C606.866943,537.039551 605.448547,537.977966 599.649414,538.087524 
	C595.072327,538.173950 592.890808,536.407898 592.953796,531.639526 
	C593.087952,521.479065 593.051270,511.314880 592.956055,501.153442 
	C592.863220,491.245758 588.587585,485.643127 581.223572,485.494598 
	C573.849609,485.345856 568.153015,492.062439 568.038269,501.277405 
	C567.913757,511.271881 568.009949,521.269104 567.891846,531.263733 
	C567.823120,537.083313 566.702087,538.029053 560.626404,538.052124 
	C554.221375,538.076416 553.038879,537.106628 553.013489,531.103821 
	C552.944275,514.777771 552.938538,498.451111 553.001831,482.125061 
	C553.025269,476.064331 554.026245,475.155243 559.968018,475.031616 
	C562.129333,474.986633 564.292297,475.024384 566.499817,474.368866 
	C562.912842,474.368866 559.243286,473.929413 555.778687,474.580658 
	C554.351990,474.848877 552.580811,477.350494 552.339844,479.033020 
	C551.801453,482.790955 552.126343,486.672546 552.100586,491.003113 
M568.506775,480.477570 
	C568.506775,480.477570 568.468140,480.490295 568.506775,480.477570 
z"/>
<path fill="#0E1315" opacity="1.000000" stroke="none" 
	d="
M795.869507,513.703735 
	C788.748352,530.116455 776.649841,538.307251 759.002625,538.087708 
	C751.174805,537.990356 743.343262,537.946899 735.516785,538.080688 
	C730.861633,538.160278 728.916260,536.180054 728.932495,531.506470 
	C729.004639,510.725922 728.922119,489.944855 728.889465,469.164001 
	C728.882385,464.674805 728.802979,460.185272 728.843140,455.696655 
	C728.877625,451.846100 730.811401,449.917267 734.760742,449.952454 
	C744.358459,450.037994 754.006226,449.430664 763.544800,450.202850 
	C784.097900,451.866638 796.008301,466.057709 798.758545,487.727020 
	C799.856201,496.375549 799.107788,505.036652 795.869507,513.703735 
M777.464233,472.071838 
	C769.820374,462.390015 759.234802,461.429749 748.075745,462.144501 
	C744.853027,462.350922 743.157776,464.101654 743.151245,467.256317 
	C743.114319,485.066101 743.050720,502.877197 743.295471,520.683716 
	C743.318115,522.330627 745.300659,525.235413 746.607910,525.376099 
	C756.817200,526.475281 767.051086,526.657776 775.330750,519.022095 
	C786.829773,508.417511 788.018616,486.162933 777.464233,472.071838 
z"/>
<path fill="#0E1315" opacity="1.000000" stroke="none" 
	d="
M712.810181,525.276978 
	C703.153259,544.699829 674.903992,545.437012 662.674011,526.906677 
	C654.002502,513.768127 655.868591,492.534485 666.585510,481.894257 
	C675.061279,473.479187 685.566711,472.176697 696.271362,474.914642 
	C706.647400,477.568542 712.208618,485.807343 715.045471,495.817993 
	C715.720947,498.201385 715.919495,500.728180 716.243103,503.201355 
	C717.133179,510.003601 715.969360,511.669952 709.009888,511.724365 
	C700.036804,511.794525 691.060181,511.288055 682.083435,511.106140 
	C680.267639,511.069336 678.370300,511.099548 676.640686,511.573669 
	C672.753113,512.639221 671.436462,515.830688 673.197815,519.313904 
	C677.722595,528.261963 687.703491,531.536560 696.490540,526.809265 
	C698.205444,525.886658 699.582764,524.339783 701.124634,523.091797 
	C704.512329,520.349915 710.980469,521.377563 712.810181,525.276978 
M672.300598,496.024017 
	C671.885132,499.756958 672.443726,502.847168 677.169067,502.870544 
	C683.987976,502.904297 690.808289,502.923798 697.626099,502.822906 
	C701.823242,502.760803 703.112854,500.469849 702.168213,496.508942 
	C700.496887,489.501312 695.151733,484.728668 688.210693,484.207397 
	C680.708252,483.643982 675.356506,487.387970 672.300598,496.024017 
z"/>
<path fill="#0E1315" opacity="1.000000" stroke="none" 
	d="
M842.701294,474.012512 
	C859.242737,475.012085 869.274475,491.542847 867.761780,506.597412 
	C867.591553,508.291809 865.285339,510.688873 863.561646,511.117035 
	C860.078369,511.982208 856.315613,511.870514 852.666626,511.889221 
	C844.701477,511.930115 836.735352,511.811127 828.769836,511.736755 
	C824.268250,511.694702 823.982178,514.427429 824.791626,517.802429 
	C827.542114,529.271118 841.980774,533.278137 851.242493,524.944458 
	C853.956726,522.502197 856.515930,521.217224 860.157349,521.894836 
	C864.499146,522.702759 865.162598,524.035828 863.307495,527.988525 
	C859.715576,535.642029 852.981812,538.457764 845.363770,539.697571 
	C825.494812,542.931091 810.204773,529.800842 809.876099,509.702484 
	C809.719971,500.155792 810.516968,491.026978 817.117737,483.439148 
	C823.780762,475.779663 832.350159,473.099182 842.701294,474.012512 
M848.281006,487.108704 
	C838.360107,481.014832 826.531494,485.203583 824.394226,495.567505 
	C823.398560,500.395325 824.961426,502.668976 829.741638,502.850342 
	C834.730286,503.039612 839.746582,503.210022 844.718018,502.885620 
	C847.858032,502.680634 850.937927,501.553772 854.044861,500.840454 
	C853.002808,497.140228 852.043335,493.413177 850.857422,489.759674 
	C850.580261,488.905914 849.534973,488.301453 848.281006,487.108704 
z"/>
<path fill="#0E1315" opacity="1.000000" stroke="none" 
	d="
M538.493286,491.888214 
	C538.716003,505.775177 538.949829,519.247314 538.811707,532.715637 
	C538.794556,534.392700 537.094421,537.122864 535.673828,537.505005 
	C532.095337,538.467590 528.041565,539.050354 525.500061,534.644043 
	C525.265564,535.655090 525.083313,536.440674 525.102417,536.358398 
	C522.430359,536.567505 519.644409,536.022644 517.746765,537.076782 
	C511.997437,540.270447 505.947693,540.458374 499.789673,539.793213 
	C492.679779,539.025269 487.064545,533.053040 485.820465,525.485107 
	C484.469025,517.263794 488.139496,509.077759 495.927856,506.321198 
	C502.565765,503.971771 509.844666,503.474701 516.787964,501.925171 
	C519.366394,501.349762 523.653931,500.476227 523.923218,499.103302 
	C524.559753,495.858734 524.230591,491.631287 522.537659,488.881165 
	C518.458374,482.254669 507.226074,482.434845 502.276581,489.018677 
	C499.801147,492.311493 496.898682,493.028290 493.218445,492.925140 
	C488.920593,492.804657 488.020111,490.599274 489.373260,487.002899 
	C491.935272,480.193573 497.051453,475.866852 504.009674,474.822113 
	C509.666687,473.972778 515.651367,474.024902 521.322937,474.842133 
	C530.721252,476.196350 536.226868,482.304962 538.493286,491.888214 
M499.567474,521.296387 
	C501.451355,527.321472 504.621826,529.751892 510.734161,529.856750 
	C520.301941,530.020874 527.342773,522.024048 525.275085,512.784973 
	C524.937805,511.278076 521.951050,509.236298 520.333618,509.358429 
	C515.764954,509.703400 511.214783,510.837250 506.764923,512.053772 
	C502.583099,513.197083 499.923431,516.004700 499.567474,521.296387 
z"/>
<path fill="#0E1315" opacity="1.000000" stroke="none" 
	d="
M912.674622,477.496002 
	C917.520508,473.581329 922.462036,475.069672 928.394287,475.752930 
	C927.164917,478.099884 926.467041,479.701538 925.539124,481.156555 
	C921.782532,487.047089 918.009216,492.928467 914.138062,498.744019 
	C910.629089,504.015381 910.304077,509.044800 914.173645,514.405823 
	C918.260559,520.067810 922.011108,525.979797 925.732849,531.893127 
	C926.630615,533.319702 926.835449,535.182373 927.358887,536.844543 
	C925.808838,537.239441 924.270630,537.916504 922.706787,537.982300 
	C914.250305,538.337769 910.925781,535.930237 907.430908,528.106873 
	C906.222168,525.401062 903.999878,523.148010 902.240540,520.688171 
	C899.741943,522.892883 897.071838,524.937256 894.806763,527.360291 
	C893.361816,528.905945 892.540649,531.027161 891.397949,532.864319 
	C888.464417,537.581055 882.359863,539.653259 877.120422,537.769348 
	C873.988953,536.643372 875.271057,534.749451 876.357239,533.050293 
	C880.300537,526.882080 884.108887,520.610901 888.373718,514.669678 
	C892.285461,509.220306 891.369873,504.095337 888.269653,498.936249 
	C884.499084,492.661835 880.536987,486.502808 876.676941,480.281891 
	C874.284241,476.425751 874.828430,475.526337 879.263977,475.039337 
	C885.719849,474.330444 890.691406,475.992401 893.292175,482.532623 
	C894.143799,484.674225 895.575439,486.586731 896.755798,488.595795 
	C899.560791,493.370331 903.130249,493.403381 906.145142,488.570862 
	C908.346191,485.043060 910.351318,481.393066 912.674622,477.496002 
z"/>
<path fill="#0E1315" opacity="1.000000" stroke="none" 
	d="
M539.960876,495.889252 
	C540.329041,495.667480 540.965088,495.712769 540.965271,495.760071 
	C541.008240,509.150299 541.007202,522.540649 539.931824,535.941223 
	C539.931824,522.679871 539.931824,509.418549 539.960876,495.889252 
z"/>
<path fill="#0E1315" opacity="1.000000" stroke="none" 
	d="
M592.116638,523.993042 
	C592.117371,529.273438 592.117371,534.055786 592.117371,538.838196 
	C591.849060,538.836731 591.580688,538.835266 591.312378,538.833801 
	C591.312378,525.898438 591.312378,512.963074 591.312378,500.027740 
	C591.580200,500.019318 591.848083,500.010864 592.115906,500.002441 
	C592.115906,507.833313 592.115906,515.664124 592.116638,523.993042 
z"/>
<path fill="#0E1315" opacity="1.000000" stroke="none" 
	d="
M608.371338,500.987396 
	C608.561035,513.000854 608.561035,525.108826 608.561035,537.216736 
	C608.434570,537.216919 608.308105,537.217102 608.181641,537.217285 
	C608.181641,525.172180 608.181641,513.127014 608.371338,500.987396 
z"/>
<path fill="#000000" opacity="1.000000" stroke="none" 
	d="
M282.617310,563.397583 
	C276.111755,557.173523 269.760620,551.293762 263.715332,545.114685 
	C258.873505,540.165771 253.314774,537.662842 246.338028,537.903992 
	C239.684250,538.133972 233.006943,538.163818 226.356583,537.885376 
	C218.824570,537.569946 212.814362,540.193176 207.707764,545.682190 
	C202.946991,550.799561 197.987473,555.758240 192.831177,560.476135 
	C181.868469,570.506714 169.304611,574.697327 155.216156,568.064270 
	C141.868958,561.780212 135.620743,549.531738 136.481995,535.832520 
	C137.592194,518.173706 141.350952,500.638580 144.637238,483.175903 
	C146.500183,473.276611 151.263123,464.495331 157.593567,456.464020 
	C167.302124,444.147003 180.330246,437.080933 195.303375,436.562378 
	C222.895432,435.606812 250.564774,436.287689 278.185394,436.962952 
	C296.254395,437.404694 308.639587,448.121490 318.518158,462.164551 
	C325.757599,472.455902 329.219330,484.327209 331.566437,496.453918 
	C333.652832,507.233765 335.448669,518.123352 336.432678,529.049133 
	C337.592834,541.931091 333.476257,553.532104 324.371643,562.790466 
	C313.384430,573.963135 297.256073,574.047546 282.617310,563.397583 
M171.902161,503.925995 
	C173.401581,503.957672 174.901443,503.975006 176.400330,504.023468 
	C182.519547,504.221405 183.637848,505.313995 183.895676,511.394165 
	C184.008575,514.056641 183.916489,516.737183 184.189529,519.381409 
	C184.671432,524.048462 187.630432,525.952698 192.086243,525.917480 
	C196.560303,525.882141 199.437866,523.886719 199.832443,519.216919 
	C200.056427,516.566040 199.969025,513.889709 200.046265,511.225586 
	C200.218887,505.271912 201.239029,504.239349 207.073227,504.025543 
	C209.568390,503.934082 212.107346,504.075623 214.547623,503.654633 
	C219.266693,502.840424 222.086838,499.343964 221.922180,495.000854 
	C221.754715,490.583466 219.426376,488.547760 213.817322,488.121002 
	C211.328720,487.931671 208.820251,487.907074 206.323090,487.947937 
	C201.888428,488.020538 199.964005,485.832581 200.043640,481.490448 
	C200.101624,478.327728 200.551773,474.984253 199.698364,472.049591 
	C198.957016,469.500183 197.126114,466.423615 194.909103,465.315002 
	C189.537537,462.628906 184.483841,466.425262 183.955933,472.727295 
	C183.585663,477.147339 184.546371,482.933655 182.135376,485.568604 
	C179.809830,488.110229 173.939041,487.531311 169.594025,488.065308 
	C165.654755,488.549469 163.633682,490.675812 163.157700,494.481079 
	C162.497086,499.762604 164.802795,502.501678 171.902161,503.925995 
M284.515228,510.838257 
	C282.642883,510.267487 280.799255,509.351776 278.892578,509.192932 
	C273.892700,508.776337 270.098022,511.436798 268.698792,516.092773 
	C267.340210,520.613525 268.902618,524.322327 272.482025,527.056519 
	C275.939880,529.697876 281.530609,529.128784 284.944641,526.150757 
	C288.849487,522.744629 288.912445,516.931335 284.515228,510.838257 
M250.796371,502.999908 
	C255.039764,504.594940 259.626892,504.711945 262.069855,500.794312 
	C263.857849,497.927032 264.431274,493.621063 263.935150,490.189240 
	C263.360565,486.214417 259.532257,484.574890 255.595993,484.357574 
	C250.933182,484.100159 247.570801,486.194885 245.849365,490.586243 
	C244.097107,495.056305 245.590698,499.134033 250.796371,502.999908 
M295.533844,485.875092 
	C291.408813,488.944794 290.320801,493.009705 291.877167,497.765930 
	C293.076324,501.430542 295.759125,503.528107 299.614777,503.788330 
	C303.903992,504.077850 307.540649,502.697632 309.588745,498.666931 
	C311.562408,494.782715 311.463745,490.759399 308.462372,487.526215 
	C305.061859,483.863098 300.769348,483.232513 295.533844,485.875092 
M275.235779,460.403778 
	C269.467194,462.996338 266.997742,467.982269 268.954071,473.086914 
	C270.813721,477.939362 276.745178,480.617706 281.719299,478.850922 
	C286.574371,477.126434 289.124115,471.331268 287.329590,466.099731 
	C285.814331,461.682373 282.550690,459.993469 275.235779,460.403778 
z"/>
<path fill="#000000" opacity="1.000000" stroke="none" 
	d="
M568.487427,480.483948 
	C568.468140,480.490295 568.506775,480.477570 568.487427,480.483948 
z"/>
<path fill="#000000" opacity="1.000000" stroke="none" 
	d="
M777.703857,472.336670 
	C788.018616,486.162933 786.829773,508.417511 775.330750,519.022095 
	C767.051086,526.657776 756.817200,526.475281 746.607910,525.376099 
	C745.300659,525.235413 743.318115,522.330627 743.295471,520.683716 
	C743.050720,502.877197 743.114319,485.066101 743.151245,467.256317 
	C743.157776,464.101654 744.853027,462.350922 748.075745,462.144501 
	C759.234802,461.429749 769.820374,462.390015 777.703857,472.336670 
M744.085632,518.293945 
	C744.272400,518.467163 744.459106,518.640381 744.645874,518.813599 
	C744.718567,518.671875 744.853943,518.530518 744.854675,518.388428 
	C744.867615,515.946228 744.863953,513.504028 744.863953,511.061798 
	C744.586121,511.060089 744.308289,511.058411 744.030457,511.056732 
	C744.030457,513.301086 744.030457,515.545410 744.085632,518.293945 
M744.898682,471.633270 
	C744.827087,470.702759 744.755554,469.772217 744.683960,468.841705 
	C744.394592,468.915466 744.105225,468.989227 743.815796,469.062988 
	C744.137024,470.020447 744.458191,470.977905 744.898682,471.633270 
z"/>
<path fill="#000000" opacity="1.000000" stroke="none" 
	d="
M672.373108,495.630249 
	C675.356506,487.387970 680.708252,483.643982 688.210693,484.207397 
	C695.151733,484.728668 700.496887,489.501312 702.168213,496.508942 
	C703.112854,500.469849 701.823242,502.760803 697.626099,502.822906 
	C690.808289,502.923798 683.987976,502.904297 677.169067,502.870544 
	C672.443726,502.847168 671.885132,499.756958 672.373108,495.630249 
z"/>
<path fill="#000000" opacity="1.000000" stroke="none" 
	d="
M848.562012,487.345490 
	C849.534973,488.301453 850.580261,488.905914 850.857422,489.759674 
	C852.043335,493.413177 853.002808,497.140228 854.044861,500.840424 
	C850.937927,501.553772 847.858032,502.680634 844.718018,502.885620 
	C839.746582,503.210022 834.730286,503.039612 829.741638,502.850342 
	C824.961426,502.668976 823.398560,500.395325 824.394226,495.567505 
	C826.531494,485.203583 838.360107,481.014832 848.562012,487.345490 
z"/>
<path fill="#000000" opacity="1.000000" stroke="none" 
	d="
M499.560913,520.930542 
	C499.923431,516.004700 502.583099,513.197083 506.764923,512.053772 
	C511.214783,510.837250 515.764954,509.703400 520.333618,509.358429 
	C521.951050,509.236298 524.937805,511.278076 525.275085,512.784973 
	C527.342773,522.024048 520.301941,530.020874 510.734161,529.856750 
	C504.621826,529.751892 501.451355,527.321472 499.560913,520.930542 
z"/>
<path fill="#0E1315" opacity="1.000000" stroke="none" 
	d="
M171.468430,503.894714 
	C164.802795,502.501678 162.497086,499.762604 163.157700,494.481079 
	C163.633682,490.675812 165.654755,488.549469 169.594025,488.065308 
	C173.939041,487.531311 179.809830,488.110229 182.135376,485.568604 
	C184.546371,482.933655 183.585663,477.147339 183.955933,472.727295 
	C184.483841,466.425262 189.537537,462.628906 194.909103,465.315002 
	C197.126114,466.423615 198.957016,469.500183 199.698364,472.049591 
	C200.551773,474.984253 200.101624,478.327728 200.043640,481.490448 
	C199.964005,485.832581 201.888428,488.020538 206.323090,487.947937 
	C208.820251,487.907074 211.328720,487.931671 213.817322,488.121002 
	C219.426376,488.547760 221.754715,490.583466 221.922180,495.000854 
	C222.086838,499.343964 219.266693,502.840424 214.547623,503.654633 
	C212.107346,504.075623 209.568390,503.934082 207.073227,504.025543 
	C201.239029,504.239349 200.218887,505.271912 200.046265,511.225586 
	C199.969025,513.889709 200.056427,516.566040 199.832443,519.216919 
	C199.437866,523.886719 196.560303,525.882141 192.086243,525.917480 
	C187.630432,525.952698 184.671432,524.048462 184.189529,519.381409 
	C183.916489,516.737183 184.008575,514.056641 183.895676,511.394165 
	C183.637848,505.313995 182.519547,504.221405 176.400330,504.023468 
	C174.901443,503.975006 173.401581,503.957672 171.468430,503.894714 
z"/>
<path fill="#0E1315" opacity="1.000000" stroke="none" 
	d="
M284.810120,511.090576 
	C288.912445,516.931335 288.849487,522.744629 284.944641,526.150757 
	C281.530609,529.128784 275.939880,529.697876 272.482025,527.056519 
	C268.902618,524.322327 267.340210,520.613525 268.698792,516.092773 
	C270.098022,511.436798 273.892700,508.776337 278.892578,509.192932 
	C280.799255,509.351776 282.642883,510.267487 284.810120,511.090576 
z"/>
<path fill="#0E1315" opacity="1.000000" stroke="none" 
	d="
M250.451050,502.822632 
	C245.590698,499.134033 244.097107,495.056305 245.849365,490.586243 
	C247.570801,486.194885 250.933182,484.100159 255.595993,484.357574 
	C259.532257,484.574890 263.360565,486.214417 263.935150,490.189240 
	C264.431274,493.621063 263.857849,497.927032 262.069855,500.794312 
	C259.626892,504.711945 255.039764,504.594940 250.451050,502.822632 
z"/>
<path fill="#0E1315" opacity="1.000000" stroke="none" 
	d="
M295.862518,485.686035 
	C300.769348,483.232513 305.061859,483.863098 308.462372,487.526215 
	C311.463745,490.759399 311.562408,494.782715 309.588745,498.666931 
	C307.540649,502.697632 303.903992,504.077850 299.614777,503.788330 
	C295.759125,503.528107 293.076324,501.430542 291.877167,497.765930 
	C290.320801,493.009705 291.408813,488.944794 295.862518,485.686035 
z"/>
<path fill="#0E1315" opacity="1.000000" stroke="none" 
	d="
M275.627777,460.325378 
	C282.550690,459.993469 285.814331,461.682373 287.329590,466.099731 
	C289.124115,471.331268 286.574371,477.126434 281.719299,478.850922 
	C276.745178,480.617706 270.813721,477.939362 268.954071,473.086914 
	C266.997742,467.982269 269.467194,462.996338 275.627777,460.325378 
z"/>
<path fill="#0E1315" opacity="1.000000" stroke="none" 
	d="
M744.058044,518.041870 
	C744.030457,515.545410 744.030457,513.301086 744.030457,511.056732 
	C744.308289,511.058411 744.586121,511.060089 744.863953,511.061798 
	C744.863953,513.504028 744.867615,515.946228 744.854675,518.388428 
	C744.853943,518.530518 744.718567,518.671875 744.645874,518.813599 
	C744.459106,518.640381 744.272400,518.467163 744.058044,518.041870 
z"/>
<path fill="#0E1315" opacity="1.000000" stroke="none" 
	d="
M744.839050,471.784302 
	C744.458191,470.977905 744.137024,470.020447 743.815796,469.062988 
	C744.105225,468.989227 744.394592,468.915466 744.683960,468.841705 
	C744.755554,469.772217 744.827087,470.702759 744.839050,471.784302 
z"/>
</svg>