<svg version="1.1" id="Layer_1" xmlns="http://www.w3.org/2000/svg" xmlns:xlink="http://www.w3.org/1999/xlink" x="0px" y="0px"
	 width="100%" viewBox="0 0 1024 1024" enable-background="new 0 0 1024 1024" xml:space="preserve">
	<defs>
		<linearGradient id="grad1" x1="0%" y1="0%" x2="100%" y2="0%">
			<stop offset="0%" style="stop-color:#3b82f6; stop-opacity:1" />   <!-- from-blue-500 -->
			<stop offset="100%" style="stop-color:#22d3ee; stop-opacity:1" /> <!-- to-cyan-400 -->
		</linearGradient>
	</defs>

<path fill="url(#grad1)" opacity="1.000000" stroke="none" 
	d="
M161.451126,399.397644 
	C188.861893,380.705292 218.862534,374.917694 251.130142,378.572357 
	C301.631805,384.292236 346.199707,422.195801 358.348236,471.663025 
	C368.149353,511.571899 362.339630,549.236084 336.189911,582.028076 
	C312.591125,611.621216 281.836853,628.270325 243.561081,630.450684 
	C222.940781,631.625427 202.853821,629.476135 183.929016,621.201416 
	C148.929932,605.898560 124.966728,580.011658 113.494270,543.446777 
	C103.040291,510.128052 105.211372,477.386902 120.932846,445.959198 
	C130.353165,427.127655 144.206329,411.984070 161.451126,399.397644 
M138.349350,534.407166 
	C138.906372,548.222778 143.229630,560.270813 156.570953,566.399292 
	C170.637772,572.861145 182.464645,567.194153 192.840836,557.422607 
	C197.812546,552.740479 202.543533,547.802246 207.368851,542.965393 
	C212.302689,538.019836 218.043579,535.306641 225.237167,535.580078 
	C232.559967,535.858398 239.908920,535.854675 247.232513,535.589661 
	C254.265762,535.335266 259.773743,538.067139 264.565674,542.939392 
	C269.932983,548.396729 275.307983,553.858643 280.918549,559.060974 
	C286.100616,563.866089 291.995483,567.603943 299.184967,568.691833 
	C319.154480,571.713562 335.110016,553.170898 334.206604,531.317078 
	C333.570343,515.925720 330.746368,500.655640 326.584564,485.684967 
	C319.802216,461.287750 302.537262,436.609375 265.071106,438.205048 
	C243.943069,439.104858 222.744919,438.315277 201.578568,438.369568 
	C178.856735,438.427856 162.407715,448.983887 152.332947,469.051300 
	C142.190781,489.252899 140.718689,511.505280 138.349350,534.407166 
z"/>
<path fill="url(#grad1)" opacity="1.000000" stroke="none" 
	d="
M413.706207,537.435791 
	C394.640411,526.612854 388.314606,504.447083 392.097015,483.893280 
	C395.297272,466.502716 404.524323,453.786957 421.886078,448.479126 
	C444.143829,441.674561 466.799744,453.208862 473.346527,474.158966 
	C475.312592,480.450439 474.778961,481.216217 468.387146,481.260834 
	C467.388123,481.267792 466.376648,481.150604 465.391937,481.267639 
	C459.490295,481.969025 455.710205,480.562042 452.591980,474.370667 
	C446.102020,461.484772 426.250763,460.929718 417.456940,472.655182 
	C408.776428,484.229706 408.746979,505.666107 417.691223,516.832275 
	C423.080353,523.560120 430.388550,526.424377 438.938385,525.089844 
	C447.271606,523.789124 452.687897,518.813660 455.124298,510.705414 
	C455.345978,509.967651 455.259155,509.137177 455.333435,508.101288 
	C450.335815,507.073364 445.535156,507.292786 440.761566,507.668243 
	C437.607239,507.916382 435.978149,506.804840 436.001038,503.565979 
	C436.002197,503.399658 435.992096,503.233032 435.981659,503.066895 
	C435.202942,490.670044 435.202911,490.667328 447.477905,490.666138 
	C455.137482,490.665405 462.797791,490.733948 470.456268,490.644318 
	C472.914978,490.615570 474.769104,490.954498 474.894287,493.931732 
	C475.642273,511.723541 471.539795,529.138062 453.449738,538.293762 
	C440.404236,544.896301 427.072998,543.790100 413.706207,537.435791 
z"/>
<path fill="url(#grad1)" opacity="1.000000" stroke="none" 
	d="
M737.126770,540.350830 
	C733.662170,540.351868 730.677795,540.351868 727.933167,540.351868 
	C726.202209,538.804016 726.683350,537.029968 726.681458,535.438538 
	C726.648804,508.135101 726.749329,480.831055 726.569458,453.528809 
	C726.538940,448.899506 728.037964,447.359314 732.597778,447.612885 
	C743.871765,448.239777 755.192200,446.815857 766.464172,448.598328 
	C785.065186,451.539734 797.259766,466.094147 800.231384,483.365662 
	C802.237915,495.027496 801.827271,506.622620 796.453064,517.481934 
	C789.136536,532.265869 776.958740,539.749390 760.580383,540.297729 
	C752.930603,540.553894 745.265320,540.346863 737.126770,540.350830 
M745.283142,517.308838 
	C745.786133,519.497437 743.868347,523.190125 747.572998,523.473022 
	C758.358582,524.296448 769.045837,524.174438 776.824707,514.646484 
	C785.285217,504.283600 783.902832,481.378845 774.511841,471.862030 
	C767.904602,465.166351 759.807922,464.288055 751.100586,464.241425 
	C746.421509,464.216339 745.091187,465.890533 745.158569,470.389771 
	C745.387939,485.708191 745.269775,501.031769 745.283142,517.308838 
z"/>
<path fill="url(#grad1)" opacity="1.000000" stroke="none" 
	d="
M608.407959,536.312561 
	C608.684753,538.840820 608.327393,540.451843 605.684387,540.330505 
	C605.186157,540.307556 604.685181,540.332153 604.185913,540.347046 
	C590.940002,540.743286 590.958496,540.743530 590.941772,527.487915 
	C590.929199,517.496582 590.944458,507.503967 590.780823,497.514679 
	C590.706665,492.985535 588.674194,489.384094 584.224365,487.834564 
	C579.551575,486.207397 575.748169,488.003845 572.737793,491.659241 
	C570.188232,494.755035 569.325562,498.407806 569.339355,502.363495 
	C569.376587,513.021790 569.187805,523.683960 569.426819,534.336975 
	C569.524597,538.692078 568.468140,540.510376 563.652893,540.455688 
	C551.082764,540.313049 551.078552,540.539001 551.057495,527.892761 
	C551.030334,511.572357 551.111511,495.250641 550.910156,478.932404 
	C550.856506,474.583496 552.212830,472.821777 556.664612,473.540344 
	C558.773682,473.880768 560.999451,473.744965 563.146790,473.547180 
	C567.164612,473.177094 571.075134,472.718201 569.152344,479.534393 
	C581.738708,468.185333 595.950195,469.174225 605.571411,481.039490 
	C606.886292,480.873016 607.452148,479.759918 608.210571,478.911224 
	C615.193481,471.096924 623.938171,470.127808 633.321045,472.914948 
	C640.983276,475.190979 647.093872,484.003265 647.252197,493.074493 
	C647.502136,507.392426 647.265259,521.718262 647.384155,536.039429 
	C647.411682,539.352112 646.041382,540.380554 642.921753,540.344849 
	C626.881714,540.161072 629.947998,542.276123 629.683167,527.831238 
	C629.524414,519.174133 629.681396,510.511627 629.622559,501.852051 
	C629.610229,500.041779 629.486328,498.180084 629.046997,496.434418 
	C627.538269,490.439331 624.169617,487.283295 619.832214,487.548523 
	C614.985291,487.844910 610.398682,492.213348 609.303406,497.482788 
	C607.760681,504.905212 608.561462,512.416504 608.410645,519.889343 
	C608.303162,525.216370 608.394531,530.547424 608.407959,536.312561 
z"/>
<path fill="url(#grad1)" opacity="1.000000" stroke="none" 
	d="
M827.283081,539.989441 
	C815.667969,535.440857 809.987976,526.427795 808.237732,515.198242 
	C806.356445,503.128235 807.102295,491.174805 816.107178,481.454193 
	C832.407654,463.858246 860.980164,470.208496 868.349487,493.000885 
	C870.011780,498.142120 870.388672,503.385498 870.395508,508.748413 
	C870.399841,512.181213 869.204285,513.444031 865.728394,513.397339 
	C854.410278,513.245117 843.088928,513.337830 831.768799,513.336304 
	C829.968933,513.336060 828.169128,513.336243 825.572937,513.336243 
	C827.196045,519.088013 829.157593,523.656616 834.424988,525.827881 
	C839.744080,528.020447 845.517456,528.072021 849.270447,523.696106 
	C852.693726,519.704773 856.374084,519.394470 860.727966,519.672852 
	C863.323120,519.838867 866.033203,518.990417 868.504211,520.380737 
	C866.860474,533.872803 849.117798,548.120300 827.283081,539.989441 
M828.254333,500.640778 
	C835.065491,500.643738 841.877380,500.591187 848.687561,500.674164 
	C851.878174,500.713043 852.730774,499.488586 851.978943,496.374634 
	C850.445007,490.021454 845.140686,485.939301 838.451233,486.322845 
	C831.934570,486.696533 825.917664,492.227631 825.532654,498.171600 
	C825.440552,499.593353 826.101868,500.342987 828.254333,500.640778 
z"/>
<path fill="url(#grad1)" opacity="1.000000" stroke="none" 
	d="
M692.537109,471.793365 
	C712.300171,475.657715 719.496277,493.435516 718.336060,510.046570 
	C718.087646,513.602661 715.742493,513.325073 713.403564,513.327759 
	C702.071167,513.341003 690.738831,513.322327 679.406433,513.346558 
	C677.624146,513.350342 675.773132,513.035645 673.828308,514.041138 
	C674.425110,519.997070 677.628357,523.760559 682.828796,526.183716 
	C688.201538,528.687134 693.747314,527.769897 697.159546,523.825195 
	C703.065613,516.997620 709.906677,520.598877 717.311829,519.735718 
	C715.838501,525.858093 713.433350,530.452576 709.364075,534.049927 
	C698.746704,543.435913 686.570435,544.880798 673.963806,539.375610 
	C661.769958,534.050720 656.547974,523.547791 655.650940,510.653198 
	C655.073975,502.358734 655.956787,494.278717 660.274475,487.003693 
	C667.449158,474.914673 678.515442,470.633270 692.537109,471.793365 
M678.712463,489.099792 
	C676.286865,490.840668 675.201050,493.441559 674.103699,496.079132 
	C672.746582,499.341187 673.691345,500.743256 677.254150,500.691925 
	C683.752258,500.598267 690.253052,500.606262 696.751648,500.676086 
	C700.448669,500.715820 700.899292,498.963043 699.930359,495.870880 
	C697.153687,487.009918 688.475037,483.927429 678.712463,489.099792 
z"/>
<path fill="url(#grad1)" opacity="1.000000" stroke="none" 
	d="
M491.454041,506.310211 
	C499.461670,500.993408 508.377686,500.696564 517.123352,499.751892 
	C519.539978,499.490906 522.493408,500.192841 523.295959,496.897156 
	C524.013794,493.949402 522.897278,491.223846 520.864075,489.123718 
	C515.821289,483.914825 505.817688,485.395569 502.664062,491.920532 
	C501.599823,494.122498 500.215179,494.864807 498.056335,494.886963 
	C497.057129,494.897217 496.057770,494.918427 495.058685,494.909637 
	C484.795563,494.819550 483.567841,492.782288 488.480225,483.709839 
	C492.805267,475.722137 500.308533,472.816498 508.683899,471.773438 
	C514.693237,471.025055 520.716431,471.726410 526.334167,474.055237 
	C534.698181,477.522461 539.437866,483.787354 540.402771,492.974457 
	C541.869019,506.935760 540.681702,520.925049 541.177734,534.889587 
	C541.320374,538.905579 540.009033,540.850891 535.769531,540.372375 
	C533.960693,540.168213 532.108826,540.316101 530.277283,540.348633 
	C526.574951,540.414246 522.613403,540.837402 524.309326,534.567200 
	C508.858704,544.540955 494.829468,544.326477 487.425018,534.655396 
	C481.338593,526.705750 482.381378,511.657013 491.454041,506.310211 
M503.530914,515.995605 
	C500.623260,520.722839 501.469116,525.340942 505.992462,527.041870 
	C510.390259,528.695557 514.851013,528.084900 518.776733,525.340088 
	C522.510620,522.729492 523.627502,518.848206 523.661987,514.488159 
	C523.681152,512.061462 522.408264,511.222565 520.226746,511.395935 
	C514.613525,511.842102 508.985260,512.259033 503.530914,515.995605 
z"/>
<path fill="url(#grad1)" opacity="1.000000" stroke="none" 
	d="
M890.711060,474.378662 
	C894.289673,480.353912 897.594910,486.086090 901.373352,492.639008 
	C904.427002,487.391174 907.299316,482.805481 909.804138,478.027161 
	C911.468628,474.851898 913.596558,473.280823 917.295715,473.571777 
	C921.905518,473.934387 926.577209,473.226624 931.013611,474.040894 
	C931.811035,475.308990 931.300720,476.174774 930.747131,477.024719 
	C925.296448,485.392487 920.009949,493.874512 914.310486,502.069397 
	C911.902527,505.531616 912.071472,508.130829 914.415955,511.479889 
	C920.141174,519.658142 925.539917,528.065063 931.060669,536.386108 
	C931.689880,537.334473 932.589783,538.195312 932.123108,540.137512 
	C926.259827,540.137512 920.211243,540.259399 914.173035,540.063232 
	C912.362061,540.004395 911.713928,537.957581 910.867798,536.574707 
	C907.845337,531.634766 904.911072,526.640808 901.637329,521.154114 
	C897.558838,524.994385 895.424011,529.527832 893.186157,533.798645 
	C890.543579,538.841614 887.144287,541.233337 881.337463,540.451050 
	C877.985229,539.999451 874.522339,540.369019 870.038757,540.369019 
	C872.969788,533.456116 876.938721,528.569519 880.214233,523.307983 
	C882.940430,518.928894 885.708374,514.557800 888.761414,510.406433 
	C890.808533,507.622711 890.340271,505.386841 888.626099,502.744934 
	C883.101746,494.230835 877.713806,485.628052 872.296997,477.044495 
	C871.874268,476.374634 871.634705,475.589294 870.859558,473.843048 
	C877.799011,473.670441 884.095215,473.204651 890.711060,474.378662 
z"/>
<path fill="url(#grad1)" opacity="1.000000" stroke="none" 
	d="
M181.650620,515.885620 
	C181.491394,503.802124 183.134796,505.576508 171.524704,505.422516 
	C162.814255,505.307007 158.836578,500.330231 160.874161,491.831879 
	C161.861694,487.713043 164.721542,485.886780 168.868561,485.642548 
	C181.354248,484.907166 181.352371,484.874969 181.658386,472.341003 
	C181.809845,466.137695 186.048431,461.844696 191.926773,461.940857 
	C198.036789,462.040741 201.996277,466.126984 202.374542,472.339203 
	C202.632736,476.579407 200.418488,481.925720 203.556564,484.766998 
	C206.383667,487.326721 211.542770,485.358734 215.664398,485.632324 
	C221.334641,486.008667 224.264114,489.081818 224.379593,494.997986 
	C224.501526,501.243256 221.638290,504.603546 216.171234,505.473419 
	C211.752335,506.176544 207.227264,504.956940 202.819107,506.287445 
	C201.865723,509.708862 202.385986,513.046570 202.330612,516.338196 
	C202.196854,524.288086 198.729965,528.862976 192.519150,528.831299 
	C185.866364,528.797424 180.527420,523.935059 181.650620,515.885620 
z"/>
<path fill="url(#grad1)" opacity="1.000000" stroke="none" 
	d="
M251.740097,482.229126 
	C262.874115,480.885132 269.546021,487.709595 266.988129,497.296173 
	C265.414673,503.193268 260.399506,506.736603 254.288147,506.269043 
	C248.072311,505.793518 243.494522,501.636322 242.749146,495.790070 
	C241.983963,489.788452 245.336868,484.546936 251.740097,482.229126 
z"/>
<path fill="url(#grad1)" opacity="1.000000" stroke="none" 
	d="
M290.327423,518.925232 
	C289.188263,526.638367 285.792358,530.415161 279.640747,531.234741 
	C274.257385,531.951965 268.744171,528.602112 266.597321,523.309509 
	C264.532135,518.218262 266.078552,512.404724 270.532471,509.020111 
	C274.639893,505.898804 279.194946,505.927795 283.747406,507.748352 
	C288.514740,509.654846 290.159088,513.673523 290.327423,518.925232 
z"/>
<path fill="url(#grad1)" opacity="1.000000" stroke="none" 
	d="
M310.827393,486.400696 
	C313.971039,491.951721 314.389893,497.180725 310.363129,502.002686 
	C307.237061,505.746063 303.038391,506.886932 298.246338,505.991577 
	C293.037537,505.018341 290.082550,501.704590 289.072845,496.750244 
	C288.069946,491.829315 289.532806,487.409637 293.519745,484.318939 
	C297.498352,481.234619 302.065491,480.825684 306.628357,483.141571 
	C308.074707,483.875610 309.273773,485.096832 310.827393,486.400696 
z"/>
<path fill="url(#grad1)" opacity="1.000000" stroke="none" 
	d="
M281.479492,457.800171 
	C288.622528,460.927399 291.670776,466.671844 289.879486,472.891663 
	C288.024139,479.334015 282.553284,482.414001 275.026764,481.253601 
	C269.918854,480.466125 265.840759,475.396820 265.825958,469.816559 
	C265.809723,463.695160 270.049896,458.387054 275.584930,457.776947 
	C277.388428,457.578156 279.232056,457.743835 281.479492,457.800171 
z"/>
</svg>